<svg xmlns="http://www.w3.org/2000/svg" version="1.1" xmlns:xlink="http://www.w3.org/1999/xlink" viewBox="0 0 200 200"><rect width="200" height="200" fill="url('#gradient')"></rect><defs><linearGradient id="gradient" gradientTransform="rotate(45 0.5 0.5)"><stop offset="0%" stop-color="#328c78"></stop><stop offset="100%" stop-color="#28819e"></stop></linearGradient></defs><g><g fill="#f6ebbc" transform="matrix(5.718895439031958,0,0,5.718895439031958,2.520530694321806,140.66072220155775)" stroke="#dba545" stroke-width="0.2"><path d="M4.73-14.22L4.73 0L1.31 0L1.31-14.22L4.73-14.22ZM16.19 0L15.36-2.66L10.66-2.66L9.84 0L6.18 0L11.40-14.22L14.62-14.22L19.87 0L16.19 0ZM13.01-10.23L11.48-5.30L14.54-5.30L13.01-10.23ZM32.78-14.22L32.78 0L29.38 0L24.34-8.85L24.34 0L20.91 0L20.91-14.22L24.34-14.22L29.37-5.37L29.37-14.22L32.78-14.22Z"></path></g></g></svg>